<svg width="393" height="764" viewBox="0 0 393 764" fill="none" xmlns="http://www.w3.org/2000/svg">
<g filter="url(#filter0_f_45_2)">
<circle cx="345" cy="37" r="8.5" stroke="#D9AE15" stroke-width="17"/>
</g>
<circle cx="345" cy="37" r="15" stroke="white" stroke-width="4"/>
<g filter="url(#filter1_f_45_2)">
<circle cx="28" cy="727" r="8.5" stroke="#1587D9" stroke-width="17"/>
</g>
<circle cx="28" cy="727" r="15" stroke="white" stroke-width="4"/>
<g filter="url(#filter2_f_45_2)">
<path d="M65.0312 568C66.8918 573.219 68.7986 586.145 61.5414 596.104M53.9697 602.636C48.1993 607.174 35.3374 610.125 40.0059 628.549M43.6132 637.324L51.3625 652.43M59.5276 661.895C60.782 664.114 65.3648 669.273 73.6608 672.154M71.0706 659.2C68.4996 663.62 63.1986 673.652 62.563 678.426" stroke="#D915B4" stroke-width="11" stroke-linecap="round"/>
</g>
<path d="M65.0312 568C66.8918 573.219 68.7986 586.145 61.5414 596.104M53.9697 602.636C48.1993 607.174 35.3374 610.125 40.0059 628.549M43.6132 637.324L51.3625 652.43M59.5276 661.895C60.782 664.114 65.3648 669.273 73.6608 672.154M71.0706 659.2C68.4996 663.62 63.1986 673.652 62.563 678.426" stroke="white" stroke-width="4" stroke-linecap="round"/>
<g filter="url(#filter3_f_45_2)">
<path d="M169 629.533C174.471 628.66 187.528 629.155 195.988 638.115M201.021 646.756C204.425 653.26 204.968 666.445 223.936 665.233M233.223 663.295L249.494 658.446M260.295 652.154C262.707 651.328 268.619 647.769 272.971 640.141M259.762 640.313C263.635 643.651 272.526 650.701 277.103 652.201" stroke="#D97315" stroke-width="11" stroke-linecap="round"/>
</g>
<path d="M169 629.533C174.471 628.66 187.528 629.155 195.988 638.115M201.021 646.756C204.425 653.26 204.968 666.445 223.936 665.233M233.223 663.295L249.494 658.446M260.295 652.154C262.707 651.328 268.619 647.769 272.971 640.141M259.762 640.313C263.635 643.651 272.526 650.701 277.103 652.201" stroke="white" stroke-width="4" stroke-linecap="round"/>
<g filter="url(#filter4_f_45_2)">
<path d="M376.278 403.885C378.766 397.342 378.871 387.218 365.983 377.503M360.572 370.631C359.769 367.116 357.583 358.796 366.081 356.143M367.18 333.559C371.386 335.158 377.554 342.853 372.13 351.489M351.721 322.866V322.866C349.011 321.836 345.979 323.197 344.948 325.907L344.77 326.375C343.74 329.085 345.101 332.117 347.811 333.148V333.148C350.522 334.178 353.554 332.817 354.585 330.107L354.762 329.639C355.793 326.929 354.431 323.897 351.721 322.866Z" stroke="#1587D9" stroke-width="11" stroke-linecap="round"/>
</g>
<path d="M376.278 403.885C378.766 397.342 378.871 387.218 365.983 377.503M360.572 370.631C359.769 367.116 357.583 358.796 366.081 356.143M367.18 333.559C371.386 335.158 377.554 342.853 372.13 351.489M351.721 322.866V322.866C349.011 321.836 345.979 323.197 344.948 325.907L344.77 326.375C343.74 329.085 345.101 332.117 347.811 333.148V333.148C350.522 334.178 353.554 332.817 354.585 330.107L354.762 329.639C355.793 326.929 354.431 323.897 351.721 322.866Z" stroke="white" stroke-width="5" stroke-linecap="round"/>
<g filter="url(#filter5_f_45_2)">
<path d="M98.6984 580.259C93.7365 575.322 84.5337 571.102 70.4108 578.915M61.9307 581.057C58.3935 580.359 49.9047 578.965 50.9436 570.124M30.7658 559.921C33.94 556.731 43.4798 554.232 49.1575 562.704M14.7032 569.683V569.683C12.658 571.738 12.6662 575.062 14.7215 577.108L15.0759 577.46C17.1312 579.505 20.4553 579.497 22.5005 577.442V577.442C24.5457 575.387 24.5375 572.062 22.4822 570.017L22.1278 569.665C20.0725 567.619 16.7484 567.628 14.7032 569.683Z" stroke="#D97315" stroke-width="11" stroke-linecap="round"/>
</g>
<path d="M98.6984 580.259C93.7365 575.322 84.5337 571.102 70.4108 578.915M61.9307 581.057C58.3935 580.359 49.9047 578.965 50.9436 570.124M30.7658 559.921C33.94 556.731 43.4798 554.232 49.1575 562.704M14.7032 569.683V569.683C12.658 571.738 12.6662 575.062 14.7215 577.108L15.0759 577.46C17.1312 579.505 20.4553 579.497 22.5005 577.442V577.442C24.5457 575.387 24.5375 572.062 22.4822 570.017L22.1278 569.665C20.0725 567.619 16.7484 567.628 14.7032 569.683Z" stroke="white" stroke-width="5" stroke-linecap="round"/>
<g filter="url(#filter6_f_45_2)">
<path d="M16.5905 160.033C23.2874 157.996 31.3574 151.882 31.1511 135.744M33.2733 127.258C35.5613 124.472 40.803 117.651 48.1023 122.747M66.634 109.792C67.9438 114.098 65.6342 123.685 55.4851 124.682M65.6273 91.0227V91.0227C64.7834 88.2487 61.8505 86.6841 59.0765 87.5281L58.5982 87.6736C55.8242 88.5175 54.2596 91.4504 55.1036 94.2244V94.2244C55.9475 96.9983 58.8804 98.5629 61.6543 97.719L62.1327 97.5735C64.9066 96.7295 66.4712 93.7967 65.6273 91.0227Z" stroke="#159ED9" stroke-width="11" stroke-linecap="round"/>
</g>
<path d="M16.5905 160.033C23.2874 157.996 31.3574 151.882 31.1511 135.744M33.2733 127.258C35.5613 124.472 40.803 117.651 48.1023 122.747M66.634 109.792C67.9438 114.098 65.6342 123.685 55.4851 124.682M65.6273 91.0227V91.0227C64.7834 88.2487 61.8505 86.6841 59.0765 87.5281L58.5982 87.6736C55.8242 88.5175 54.2596 91.4504 55.1036 94.2244V94.2244C55.9475 96.9983 58.8804 98.5629 61.6543 97.719L62.1327 97.5735C64.9066 96.7295 66.4712 93.7967 65.6273 91.0227Z" stroke="white" stroke-width="5" stroke-linecap="round"/>
<g filter="url(#filter7_f_45_2)">
<circle cx="345" cy="611" r="8.5" stroke="#D915B4" stroke-width="17"/>
</g>
<circle cx="345" cy="611" r="15" stroke="white" stroke-width="4"/>
<defs>
<filter id="filter0_f_45_2" x="308" y="0" width="74" height="74" filterUnits="userSpaceOnUse" color-interpolation-filters="sRGB">
<feFlood flood-opacity="0" result="BackgroundImageFix"/>
<feBlend mode="normal" in="SourceGraphic" in2="BackgroundImageFix" result="shape"/>
<feGaussianBlur stdDeviation="10" result="effect1_foregroundBlur_45_2"/>
</filter>
<filter id="filter1_f_45_2" x="-9" y="690" width="74" height="74" filterUnits="userSpaceOnUse" color-interpolation-filters="sRGB">
<feFlood flood-opacity="0" result="BackgroundImageFix"/>
<feBlend mode="normal" in="SourceGraphic" in2="BackgroundImageFix" result="shape"/>
<feGaussianBlur stdDeviation="10" result="effect1_foregroundBlur_45_2"/>
</filter>
<filter id="filter2_f_45_2" x="28.5051" y="557.499" width="55.6572" height="131.428" filterUnits="userSpaceOnUse" color-interpolation-filters="sRGB">
<feFlood flood-opacity="0" result="BackgroundImageFix"/>
<feBlend mode="normal" in="SourceGraphic" in2="BackgroundImageFix" result="shape"/>
<feGaussianBlur stdDeviation="2.5" result="effect1_foregroundBlur_45_2"/>
</filter>
<filter id="filter3_f_45_2" x="158.499" y="618.73" width="129.105" height="57.0813" filterUnits="userSpaceOnUse" color-interpolation-filters="sRGB">
<feFlood flood-opacity="0" result="BackgroundImageFix"/>
<feBlend mode="normal" in="SourceGraphic" in2="BackgroundImageFix" result="shape"/>
<feGaussianBlur stdDeviation="2.5" result="effect1_foregroundBlur_45_2"/>
</filter>
<filter id="filter4_f_45_2" x="333.924" y="312.02" width="54.1647" height="102.366" filterUnits="userSpaceOnUse" color-interpolation-filters="sRGB">
<feFlood flood-opacity="0" result="BackgroundImageFix"/>
<feBlend mode="normal" in="SourceGraphic" in2="BackgroundImageFix" result="shape"/>
<feGaussianBlur stdDeviation="2.5" result="effect1_foregroundBlur_45_2"/>
</filter>
<filter id="filter5_f_45_2" x="2.67462" y="546.439" width="106.524" height="45.1195" filterUnits="userSpaceOnUse" color-interpolation-filters="sRGB">
<feFlood flood-opacity="0" result="BackgroundImageFix"/>
<feBlend mode="normal" in="SourceGraphic" in2="BackgroundImageFix" result="shape"/>
<feGaussianBlur stdDeviation="2.5" result="effect1_foregroundBlur_45_2"/>
</filter>
<filter id="filter6_f_45_2" x="6.08899" y="76.798" width="71.3793" height="93.7367" filterUnits="userSpaceOnUse" color-interpolation-filters="sRGB">
<feFlood flood-opacity="0" result="BackgroundImageFix"/>
<feBlend mode="normal" in="SourceGraphic" in2="BackgroundImageFix" result="shape"/>
<feGaussianBlur stdDeviation="2.5" result="effect1_foregroundBlur_45_2"/>
</filter>
<filter id="filter7_f_45_2" x="308" y="574" width="74" height="74" filterUnits="userSpaceOnUse" color-interpolation-filters="sRGB">
<feFlood flood-opacity="0" result="BackgroundImageFix"/>
<feBlend mode="normal" in="SourceGraphic" in2="BackgroundImageFix" result="shape"/>
<feGaussianBlur stdDeviation="10" result="effect1_foregroundBlur_45_2"/>
</filter>
</defs>
</svg>
